<mxfile host="65bd71144e">
    <diagram id="R2lEEEUBdFMjLlhIrx00" name="Modelo ER">
        <mxGraphModel dx="4576" dy="2453" grid="1" gridSize="10" guides="1" tooltips="1" connect="1" arrows="1" fold="1" page="1" pageScale="1" pageWidth="850" pageHeight="1100" math="0" shadow="0" extFonts="Permanent Marker^https://fonts.googleapis.com/css?family=Permanent+Marker">
            <root>
                <mxCell id="0"/>
                <mxCell id="1" parent="0"/>
                <mxCell id="215" style="edgeStyle=none;html=1;exitX=1;exitY=0.5;exitDx=0;exitDy=0;" edge="1" parent="1" source="SNr2iGY9kLtbWOyEGPe4-2" target="201">
                    <mxGeometry relative="1" as="geometry"/>
                </mxCell>
                <mxCell id="SNr2iGY9kLtbWOyEGPe4-2" value="Proveedores" style="rounded=0;whiteSpace=wrap;html=1;" parent="1" vertex="1">
                    <mxGeometry x="-110" y="-360" width="120" height="60" as="geometry"/>
                </mxCell>
                <mxCell id="214" style="edgeStyle=none;html=1;exitX=0.5;exitY=0;exitDx=0;exitDy=0;" edge="1" parent="1" source="SNr2iGY9kLtbWOyEGPe4-3" target="211">
                    <mxGeometry relative="1" as="geometry"/>
                </mxCell>
                <mxCell id="SNr2iGY9kLtbWOyEGPe4-3" value="Fleteros" style="rounded=0;whiteSpace=wrap;html=1;" parent="1" vertex="1">
                    <mxGeometry x="-170" y="-500" width="120" height="60" as="geometry"/>
                </mxCell>
                <mxCell id="SNr2iGY9kLtbWOyEGPe4-4" value="ContralorÃ­a" style="rounded=0;whiteSpace=wrap;html=1;" parent="1" vertex="1">
                    <mxGeometry x="-330" y="-500" width="120" height="60" as="geometry"/>
                </mxCell>
                <mxCell id="SNr2iGY9kLtbWOyEGPe4-5" value="Agropecuario" style="rounded=0;whiteSpace=wrap;html=1;" parent="1" vertex="1">
                    <mxGeometry x="-440" y="-420" width="120" height="60" as="geometry"/>
                </mxCell>
                <mxCell id="SNr2iGY9kLtbWOyEGPe4-8" value="Datos del Terreno" style="rounded=0;whiteSpace=wrap;html=1;" parent="1" vertex="1">
                    <mxGeometry x="250" y="1020" width="120" height="60" as="geometry"/>
                </mxCell>
                <mxCell id="SNr2iGY9kLtbWOyEGPe4-9" value="Siembras" style="rounded=0;whiteSpace=wrap;html=1;" parent="1" vertex="1">
                    <mxGeometry x="250" y="930" width="120" height="60" as="geometry"/>
                </mxCell>
                <mxCell id="234" value="" style="edgeStyle=none;html=1;" edge="1" parent="1" source="SNr2iGY9kLtbWOyEGPe4-10" target="210">
                    <mxGeometry relative="1" as="geometry"/>
                </mxCell>
                <mxCell id="SNr2iGY9kLtbWOyEGPe4-10" value="Solicitudes" style="rounded=0;whiteSpace=wrap;html=1;" parent="1" vertex="1">
                    <mxGeometry x="-1170" y="-416.5" width="120" height="60" as="geometry"/>
                </mxCell>
                <mxCell id="SNr2iGY9kLtbWOyEGPe4-11" value="Camiones" style="rounded=0;whiteSpace=wrap;html=1;" parent="1" vertex="1">
                    <mxGeometry x="410" y="1020" width="120" height="60" as="geometry"/>
                </mxCell>
                <mxCell id="SNr2iGY9kLtbWOyEGPe4-12" value="Choferes" style="rounded=0;whiteSpace=wrap;html=1;" parent="1" vertex="1">
                    <mxGeometry x="410" y="930" width="120" height="60" as="geometry"/>
                </mxCell>
                <mxCell id="SNr2iGY9kLtbWOyEGPe4-13" value="Reportes" style="rounded=0;whiteSpace=wrap;html=1;" parent="1" vertex="1">
                    <mxGeometry x="720" y="930" width="120" height="60" as="geometry"/>
                </mxCell>
                <mxCell id="SNr2iGY9kLtbWOyEGPe4-14" value="Planificaciones de Arrime" style="rounded=0;whiteSpace=wrap;html=1;" parent="1" vertex="1">
                    <mxGeometry x="-801" y="-420" width="120" height="60" as="geometry"/>
                </mxCell>
                <mxCell id="SNr2iGY9kLtbWOyEGPe4-15" value="Plantillas de ODP" style="rounded=0;whiteSpace=wrap;html=1;" parent="1" vertex="1">
                    <mxGeometry x="570" y="1020" width="120" height="60" as="geometry"/>
                </mxCell>
                <mxCell id="SNr2iGY9kLtbWOyEGPe4-16" value="Tarifas" style="rounded=0;whiteSpace=wrap;html=1;" parent="1" vertex="1">
                    <mxGeometry x="570" y="930" width="120" height="60" as="geometry"/>
                </mxCell>
                <mxCell id="7" value="Nombre" style="ellipse;whiteSpace=wrap;html=1;strokeWidth=1;" vertex="1" parent="1">
                    <mxGeometry x="-830" y="-970" width="100" height="40" as="geometry"/>
                </mxCell>
                <mxCell id="8" value="Apellido" style="ellipse;whiteSpace=wrap;html=1;strokeWidth=1;" vertex="1" parent="1">
                    <mxGeometry x="-780" y="-1020" width="100" height="40" as="geometry"/>
                </mxCell>
                <mxCell id="9" value="E-Mail" style="ellipse;whiteSpace=wrap;html=1;strokeWidth=1;" vertex="1" parent="1">
                    <mxGeometry x="-740" y="-1070" width="100" height="40" as="geometry"/>
                </mxCell>
                <mxCell id="10" value="Cedula" style="ellipse;whiteSpace=wrap;html=1;strokeWidth=1;" vertex="1" parent="1">
                    <mxGeometry x="-580" y="-1070" width="100" height="40" as="geometry"/>
                </mxCell>
                <mxCell id="11" value="RIF" style="ellipse;whiteSpace=wrap;html=1;strokeWidth=1;" vertex="1" parent="1">
                    <mxGeometry x="-470" y="-1020" width="100" height="40" as="geometry"/>
                </mxCell>
                <mxCell id="13" value="Direccion" style="ellipse;whiteSpace=wrap;html=1;strokeWidth=1;" vertex="1" parent="1">
                    <mxGeometry x="-670" y="-1020" width="100" height="40" as="geometry"/>
                </mxCell>
                <mxCell id="14" value="# Celular" style="ellipse;whiteSpace=wrap;html=1;strokeWidth=1;" vertex="1" parent="1">
                    <mxGeometry x="-570" y="-1002" width="100" height="40" as="geometry"/>
                </mxCell>
                <mxCell id="15" value="" style="endArrow=none;html=1;" edge="1" parent="1" source="110" target="7">
                    <mxGeometry width="50" height="50" relative="1" as="geometry">
                        <mxPoint x="-677.5206118318192" y="-910.3152358101803" as="sourcePoint"/>
                        <mxPoint x="-370" y="-952" as="targetPoint"/>
                    </mxGeometry>
                </mxCell>
                <mxCell id="16" value="" style="endArrow=none;html=1;" edge="1" parent="1" source="110" target="8">
                    <mxGeometry width="50" height="50" relative="1" as="geometry">
                        <mxPoint x="-655.3731279198751" y="-919.1854941998663" as="sourcePoint"/>
                        <mxPoint x="-747.6393202250019" y="-974.1114561800016" as="targetPoint"/>
                    </mxGeometry>
                </mxCell>
                <mxCell id="17" value="" style="endArrow=none;html=1;" edge="1" parent="1" source="110" target="9">
                    <mxGeometry width="50" height="50" relative="1" as="geometry">
                        <mxPoint x="-641.0877401064204" y="-921.4833089193455" as="sourcePoint"/>
                        <mxPoint x="-691.6958994217855" y="-1042.2777611267406" as="targetPoint"/>
                    </mxGeometry>
                </mxCell>
                <mxCell id="18" value="" style="endArrow=none;html=1;" edge="1" parent="1" source="110" target="10">
                    <mxGeometry width="50" height="50" relative="1" as="geometry">
                        <mxPoint x="-611.9087186353136" y="-920.6037826982201" as="sourcePoint"/>
                        <mxPoint x="-556.9323922267317" y="-1052.193165066481" as="targetPoint"/>
                    </mxGeometry>
                </mxCell>
                <mxCell id="19" value="" style="endArrow=none;html=1;" edge="1" parent="1" source="110" target="14">
                    <mxGeometry width="50" height="50" relative="1" as="geometry">
                        <mxPoint x="-598.8832605583873" y="-917.6502852153836" as="sourcePoint"/>
                        <mxPoint x="-460.51823386644537" y="-1013.7615698964933" as="targetPoint"/>
                    </mxGeometry>
                </mxCell>
                <mxCell id="20" value="" style="endArrow=none;html=1;" edge="1" parent="1" source="110" target="11">
                    <mxGeometry width="50" height="50" relative="1" as="geometry">
                        <mxPoint x="-588.1281163853753" y="-913.4868876443469" as="sourcePoint"/>
                        <mxPoint x="-505.35533905932743" y="-917.8578643762694" as="targetPoint"/>
                    </mxGeometry>
                </mxCell>
                <mxCell id="21" value="" style="endArrow=none;html=1;" edge="1" parent="1" source="110" target="13">
                    <mxGeometry width="50" height="50" relative="1" as="geometry">
                        <mxPoint x="-627.1653310169079" y="-921.966500678401" as="sourcePoint"/>
                        <mxPoint x="-401.4793873809747" y="-930.8324726281992" as="targetPoint"/>
                    </mxGeometry>
                </mxCell>
                <mxCell id="89" value="Banco&lt;br&gt;" style="ellipse;whiteSpace=wrap;html=1;strokeWidth=1;" vertex="1" parent="1">
                    <mxGeometry x="-270" y="-997" width="100" height="40" as="geometry"/>
                </mxCell>
                <mxCell id="90" value="# de Cuenta" style="ellipse;whiteSpace=wrap;html=1;strokeWidth=1;" vertex="1" parent="1">
                    <mxGeometry x="-140" y="-1034" width="100" height="40" as="geometry"/>
                </mxCell>
                <mxCell id="91" value="Tipo de cuenta" style="ellipse;whiteSpace=wrap;html=1;strokeWidth=1;" vertex="1" parent="1">
                    <mxGeometry y="-997" width="100" height="40" as="geometry"/>
                </mxCell>
                <mxCell id="92" value="Banco&lt;br&gt;" style="ellipse;whiteSpace=wrap;html=1;strokeWidth=1;" vertex="1" parent="1">
                    <mxGeometry x="190" y="-992.5" width="100" height="40" as="geometry"/>
                </mxCell>
                <mxCell id="93" value="# de Cuenta" style="ellipse;whiteSpace=wrap;html=1;strokeWidth=1;" vertex="1" parent="1">
                    <mxGeometry x="260" y="-1054.5" width="100" height="40" as="geometry"/>
                </mxCell>
                <mxCell id="94" value="Tipo de cuenta" style="ellipse;whiteSpace=wrap;html=1;strokeWidth=1;" vertex="1" parent="1">
                    <mxGeometry x="390" y="-1062.5" width="100" height="40" as="geometry"/>
                </mxCell>
                <mxCell id="95" value="Nombre" style="ellipse;whiteSpace=wrap;html=1;strokeWidth=1;" vertex="1" parent="1">
                    <mxGeometry x="460" y="-977.5" width="100" height="40" as="geometry"/>
                </mxCell>
                <mxCell id="96" value="" style="endArrow=none;html=1;" edge="1" parent="1" source="108" target="89">
                    <mxGeometry width="50" height="50" relative="1" as="geometry">
                        <mxPoint x="-142.3557982557254" y="-917.2641164462517" as="sourcePoint"/>
                        <mxPoint x="-370.81074561700643" y="-996.2484390384967" as="targetPoint"/>
                    </mxGeometry>
                </mxCell>
                <mxCell id="97" value="" style="endArrow=none;html=1;" edge="1" parent="1" source="108" target="90">
                    <mxGeometry width="50" height="50" relative="1" as="geometry">
                        <mxPoint x="-105.13237694582767" y="-921.9011130470582" as="sourcePoint"/>
                        <mxPoint x="-187.04899740618225" y="-949.231481862851" as="targetPoint"/>
                    </mxGeometry>
                </mxCell>
                <mxCell id="98" value="" style="endArrow=none;html=1;" edge="1" parent="1" source="108" target="91">
                    <mxGeometry width="50" height="50" relative="1" as="geometry">
                        <mxPoint x="-68.71450501945128" y="-913.7687155351983" as="sourcePoint"/>
                        <mxPoint x="-83.29380055892511" y="-984.0434436723945" as="targetPoint"/>
                    </mxGeometry>
                </mxCell>
                <mxCell id="99" value="" style="endArrow=none;html=1;" edge="1" parent="1" source="109" target="92">
                    <mxGeometry width="50" height="50" relative="1" as="geometry">
                        <mxPoint x="327.98980013557" y="-902.8739389169257" as="sourcePoint"/>
                        <mxPoint x="29.2250814620063" y="-931.7372368463934" as="targetPoint"/>
                    </mxGeometry>
                </mxCell>
                <mxCell id="100" value="" style="endArrow=none;html=1;" edge="1" parent="1" source="109" target="93">
                    <mxGeometry width="50" height="50" relative="1" as="geometry">
                        <mxPoint x="350.5504533334806" y="-907.125605765304" as="sourcePoint"/>
                        <mxPoint x="370" y="-967.5" as="targetPoint"/>
                    </mxGeometry>
                </mxCell>
                <mxCell id="101" value="" style="endArrow=none;html=1;" edge="1" parent="1" source="109" target="94">
                    <mxGeometry width="50" height="50" relative="1" as="geometry">
                        <mxPoint x="373.993406620571" y="-906.67269515814" as="sourcePoint"/>
                        <mxPoint x="423.1726601750138" y="-1022.6873275667058" as="targetPoint"/>
                    </mxGeometry>
                </mxCell>
                <mxCell id="102" value="" style="endArrow=none;html=1;" edge="1" parent="1" source="109" target="95">
                    <mxGeometry width="50" height="50" relative="1" as="geometry">
                        <mxPoint x="401.19741197782287" y="-899.3103945764946" as="sourcePoint"/>
                        <mxPoint x="529.0990822738545" y="-1006.3312283818476" as="targetPoint"/>
                    </mxGeometry>
                </mxCell>
                <mxCell id="108" value="Cuenta Personal" style="ellipse;shape=doubleEllipse;margin=3;whiteSpace=wrap;html=1;align=center;strokeWidth=1;" vertex="1" parent="1">
                    <mxGeometry x="-170" y="-922" width="120" height="62" as="geometry"/>
                </mxCell>
                <mxCell id="109" value="Cuenta Autorizada" style="ellipse;shape=doubleEllipse;margin=3;whiteSpace=wrap;html=1;align=center;strokeWidth=1;" vertex="1" parent="1">
                    <mxGeometry x="300" y="-930" width="120" height="62" as="geometry"/>
                </mxCell>
                <mxCell id="110" value="Datos Personales" style="ellipse;shape=doubleEllipse;margin=3;whiteSpace=wrap;html=1;align=center;strokeWidth=1;" vertex="1" parent="1">
                    <mxGeometry x="-680" y="-930" width="120" height="62" as="geometry"/>
                </mxCell>
                <mxCell id="114" value="Usuario" style="rounded=0;whiteSpace=wrap;html=1;" vertex="1" parent="1">
                    <mxGeometry x="-270" y="-170" width="120" height="60" as="geometry"/>
                </mxCell>
                <mxCell id="116" value="" style="verticalLabelPosition=bottom;verticalAlign=top;html=1;shape=mxgraph.basic.acute_triangle;dx=0.5;strokeWidth=1;rotation=-180;" vertex="1" parent="1">
                    <mxGeometry x="-260" y="-320" width="100" height="70" as="geometry"/>
                </mxCell>
                <mxCell id="117" value="Es un" style="text;html=1;strokeColor=none;fillColor=none;align=center;verticalAlign=middle;whiteSpace=wrap;rounded=0;" vertex="1" parent="1">
                    <mxGeometry x="-240" y="-310" width="60" height="30" as="geometry"/>
                </mxCell>
                <mxCell id="118" value="" style="endArrow=none;html=1;" edge="1" parent="1" source="114" target="116">
                    <mxGeometry width="50" height="50" relative="1" as="geometry">
                        <mxPoint x="-180" y="-250" as="sourcePoint"/>
                        <mxPoint x="-130" y="-300" as="targetPoint"/>
                    </mxGeometry>
                </mxCell>
                <mxCell id="119" value="" style="endArrow=none;html=1;entryX=0.928;entryY=0.847;entryDx=0;entryDy=0;entryPerimeter=0;" edge="1" parent="1" source="SNr2iGY9kLtbWOyEGPe4-5" target="116">
                    <mxGeometry width="50" height="50" relative="1" as="geometry">
                        <mxPoint x="-200" y="-160" as="sourcePoint"/>
                        <mxPoint x="-200" y="-240" as="targetPoint"/>
                    </mxGeometry>
                </mxCell>
                <mxCell id="121" value="" style="endArrow=none;html=1;" edge="1" parent="1" source="SNr2iGY9kLtbWOyEGPe4-3" target="116">
                    <mxGeometry width="50" height="50" relative="1" as="geometry">
                        <mxPoint x="-390" y="-335.315637065637" as="sourcePoint"/>
                        <mxPoint x="-242.80000000000018" y="-299.2900000000002" as="targetPoint"/>
                    </mxGeometry>
                </mxCell>
                <mxCell id="122" value="" style="endArrow=none;html=1;" edge="1" parent="1" source="SNr2iGY9kLtbWOyEGPe4-4" target="116">
                    <mxGeometry width="50" height="50" relative="1" as="geometry">
                        <mxPoint x="-314.57317665339406" y="-490" as="sourcePoint"/>
                        <mxPoint x="-224.0999999999999" y="-314.0600000000002" as="targetPoint"/>
                    </mxGeometry>
                </mxCell>
                <mxCell id="123" value="" style="endArrow=none;html=1;entryX=0;entryY=1;entryDx=0;entryDy=0;entryPerimeter=0;" edge="1" parent="1" source="SNr2iGY9kLtbWOyEGPe4-2" target="116">
                    <mxGeometry width="50" height="50" relative="1" as="geometry">
                        <mxPoint x="-103.4693877551017" y="-490" as="sourcePoint"/>
                        <mxPoint x="-170" y="-320" as="targetPoint"/>
                    </mxGeometry>
                </mxCell>
                <mxCell id="124" value="Nombre" style="ellipse;whiteSpace=wrap;html=1;strokeWidth=1;" vertex="1" parent="1">
                    <mxGeometry x="-630" y="-110" width="100" height="40" as="geometry"/>
                </mxCell>
                <mxCell id="125" value="Apellido" style="ellipse;whiteSpace=wrap;html=1;strokeWidth=1;" vertex="1" parent="1">
                    <mxGeometry x="-580" y="-70" width="100" height="40" as="geometry"/>
                </mxCell>
                <mxCell id="126" value="E-Mail" style="ellipse;whiteSpace=wrap;html=1;strokeWidth=1;" vertex="1" parent="1">
                    <mxGeometry x="-580" y="-205" width="100" height="40" as="geometry"/>
                </mxCell>
                <mxCell id="127" value="Cedula" style="ellipse;whiteSpace=wrap;html=1;strokeWidth=1;" vertex="1" parent="1">
                    <mxGeometry x="-500" y="-250" width="100" height="40" as="geometry"/>
                </mxCell>
                <mxCell id="128" value="RIF" style="ellipse;whiteSpace=wrap;html=1;strokeWidth=1;" vertex="1" parent="1">
                    <mxGeometry x="-470" y="-90" width="100" height="40" as="geometry"/>
                </mxCell>
                <mxCell id="129" value="Direccion" style="ellipse;whiteSpace=wrap;html=1;strokeWidth=1;" vertex="1" parent="1">
                    <mxGeometry x="-590" y="-160" width="100" height="40" as="geometry"/>
                </mxCell>
                <mxCell id="130" value="# Celular" style="ellipse;whiteSpace=wrap;html=1;strokeWidth=1;" vertex="1" parent="1">
                    <mxGeometry x="-600" y="-250" width="100" height="40" as="geometry"/>
                </mxCell>
                <mxCell id="131" value="" style="endArrow=none;html=1;" edge="1" source="138" target="124" parent="1">
                    <mxGeometry width="50" height="50" relative="1" as="geometry">
                        <mxPoint x="-417.5206118318192" y="-150.3152358101803" as="sourcePoint"/>
                        <mxPoint x="-110" y="-192" as="targetPoint"/>
                    </mxGeometry>
                </mxCell>
                <mxCell id="132" value="" style="endArrow=none;html=1;" edge="1" source="138" target="125" parent="1">
                    <mxGeometry width="50" height="50" relative="1" as="geometry">
                        <mxPoint x="-395.37312791987506" y="-159.1854941998663" as="sourcePoint"/>
                        <mxPoint x="-487.63932022500194" y="-214.1114561800016" as="targetPoint"/>
                    </mxGeometry>
                </mxCell>
                <mxCell id="133" value="" style="endArrow=none;html=1;" edge="1" source="138" target="126" parent="1">
                    <mxGeometry width="50" height="50" relative="1" as="geometry">
                        <mxPoint x="-381.08774010642037" y="-161.48330891934552" as="sourcePoint"/>
                        <mxPoint x="-431.6958994217855" y="-282.27776112674064" as="targetPoint"/>
                    </mxGeometry>
                </mxCell>
                <mxCell id="134" value="" style="endArrow=none;html=1;" edge="1" source="138" target="127" parent="1">
                    <mxGeometry width="50" height="50" relative="1" as="geometry">
                        <mxPoint x="-351.90871863531356" y="-160.60378269822013" as="sourcePoint"/>
                        <mxPoint x="-296.93239222673174" y="-292.193165066481" as="targetPoint"/>
                    </mxGeometry>
                </mxCell>
                <mxCell id="135" value="" style="endArrow=none;html=1;" edge="1" source="138" target="130" parent="1">
                    <mxGeometry width="50" height="50" relative="1" as="geometry">
                        <mxPoint x="-338.8832605583873" y="-157.65028521538363" as="sourcePoint"/>
                        <mxPoint x="-200.51823386644537" y="-253.76156989649326" as="targetPoint"/>
                    </mxGeometry>
                </mxCell>
                <mxCell id="136" value="" style="endArrow=none;html=1;" edge="1" source="138" target="128" parent="1">
                    <mxGeometry width="50" height="50" relative="1" as="geometry">
                        <mxPoint x="-328.1281163853753" y="-153.4868876443469" as="sourcePoint"/>
                        <mxPoint x="-245.35533905932743" y="-157.8578643762694" as="targetPoint"/>
                    </mxGeometry>
                </mxCell>
                <mxCell id="137" value="" style="endArrow=none;html=1;" edge="1" source="138" target="129" parent="1">
                    <mxGeometry width="50" height="50" relative="1" as="geometry">
                        <mxPoint x="-367.1653310169079" y="-161.96650067840096" as="sourcePoint"/>
                        <mxPoint x="-141.47938738097469" y="-170.83247262819918" as="targetPoint"/>
                    </mxGeometry>
                </mxCell>
                <mxCell id="138" value="Datos Personales" style="ellipse;shape=doubleEllipse;margin=3;whiteSpace=wrap;html=1;align=center;strokeWidth=1;" vertex="1" parent="1">
                    <mxGeometry x="-420" y="-170" width="120" height="62" as="geometry"/>
                </mxCell>
                <mxCell id="139" value="" style="endArrow=none;html=1;" edge="1" parent="1" source="114" target="138">
                    <mxGeometry width="50" height="50" relative="1" as="geometry">
                        <mxPoint x="-200" y="-160" as="sourcePoint"/>
                        <mxPoint x="-200" y="-240" as="targetPoint"/>
                    </mxGeometry>
                </mxCell>
                <mxCell id="140" value="Sector" style="ellipse;whiteSpace=wrap;html=1;strokeWidth=1;" vertex="1" parent="1">
                    <mxGeometry x="-250" y="-652" width="100" height="40" as="geometry"/>
                </mxCell>
                <mxCell id="141" value="" style="endArrow=none;html=1;" edge="1" parent="1" source="SNr2iGY9kLtbWOyEGPe4-3" target="140">
                    <mxGeometry width="50" height="50" relative="1" as="geometry">
                        <mxPoint x="-7.18299088754884" y="-146.6360407356749" as="sourcePoint"/>
                        <mxPoint x="-51.63892298416931" y="-191.39732986553986" as="targetPoint"/>
                    </mxGeometry>
                </mxCell>
                <mxCell id="142" value="Realiza" style="shape=rhombus;perimeter=rhombusPerimeter;whiteSpace=wrap;html=1;align=center;strokeWidth=1;" vertex="1" parent="1">
                    <mxGeometry x="-640" y="-420" width="120" height="60" as="geometry"/>
                </mxCell>
                <mxCell id="144" value="" style="endArrow=none;html=1;rounded=0;" edge="1" parent="1" source="SNr2iGY9kLtbWOyEGPe4-5" target="142">
                    <mxGeometry relative="1" as="geometry">
                        <mxPoint x="-280" y="-80" as="sourcePoint"/>
                        <mxPoint x="-100" y="-70" as="targetPoint"/>
                    </mxGeometry>
                </mxCell>
                <mxCell id="191" value="1" style="edgeLabel;html=1;align=center;verticalAlign=middle;resizable=0;points=[];" vertex="1" connectable="0" parent="144">
                    <mxGeometry x="-0.6546" relative="1" as="geometry">
                        <mxPoint as="offset"/>
                    </mxGeometry>
                </mxCell>
                <mxCell id="192" value="N&lt;br&gt;" style="edgeLabel;html=1;align=center;verticalAlign=middle;resizable=0;points=[];" vertex="1" connectable="0" parent="144">
                    <mxGeometry x="0.7161" y="1" relative="1" as="geometry">
                        <mxPoint as="offset"/>
                    </mxGeometry>
                </mxCell>
                <mxCell id="152" value="Banco&lt;br&gt;" style="ellipse;whiteSpace=wrap;html=1;strokeWidth=1;" vertex="1" parent="1">
                    <mxGeometry x="-540" y="-643" width="100" height="40" as="geometry"/>
                </mxCell>
                <mxCell id="153" value="# de Cuenta" style="ellipse;whiteSpace=wrap;html=1;strokeWidth=1;" vertex="1" parent="1">
                    <mxGeometry x="-480" y="-741" width="100" height="40" as="geometry"/>
                </mxCell>
                <mxCell id="154" value="Tipo de cuenta" style="ellipse;whiteSpace=wrap;html=1;strokeWidth=1;" vertex="1" parent="1">
                    <mxGeometry x="-370" y="-751" width="100" height="40" as="geometry"/>
                </mxCell>
                <mxCell id="155" value="" style="endArrow=none;html=1;" edge="1" source="158" target="152" parent="1">
                    <mxGeometry width="50" height="50" relative="1" as="geometry">
                        <mxPoint x="-72.3557982557254" y="-607.2641164462517" as="sourcePoint"/>
                        <mxPoint x="-300.81074561700643" y="-686.2484390384967" as="targetPoint"/>
                    </mxGeometry>
                </mxCell>
                <mxCell id="156" value="" style="endArrow=none;html=1;" edge="1" source="158" target="153" parent="1">
                    <mxGeometry width="50" height="50" relative="1" as="geometry">
                        <mxPoint x="-35.13237694582767" y="-611.9011130470582" as="sourcePoint"/>
                        <mxPoint x="-117.04899740618225" y="-639.231481862851" as="targetPoint"/>
                    </mxGeometry>
                </mxCell>
                <mxCell id="157" value="" style="endArrow=none;html=1;" edge="1" source="158" target="154" parent="1">
                    <mxGeometry width="50" height="50" relative="1" as="geometry">
                        <mxPoint x="1.2854949805487195" y="-603.7687155351983" as="sourcePoint"/>
                        <mxPoint x="-13.293800558925113" y="-674.0434436723945" as="targetPoint"/>
                    </mxGeometry>
                </mxCell>
                <mxCell id="158" value="Cuenta Personal" style="ellipse;shape=doubleEllipse;margin=3;whiteSpace=wrap;html=1;align=center;strokeWidth=1;" vertex="1" parent="1">
                    <mxGeometry x="-410" y="-651" width="120" height="62" as="geometry"/>
                </mxCell>
                <mxCell id="159" value="Banco&lt;br&gt;" style="ellipse;whiteSpace=wrap;html=1;strokeWidth=1;" vertex="1" parent="1">
                    <mxGeometry x="140" y="-222" width="100" height="40" as="geometry"/>
                </mxCell>
                <mxCell id="160" value="# de Cuenta" style="ellipse;whiteSpace=wrap;html=1;strokeWidth=1;" vertex="1" parent="1">
                    <mxGeometry x="40" y="-192" width="100" height="40" as="geometry"/>
                </mxCell>
                <mxCell id="161" value="Tipo de cuenta" style="ellipse;whiteSpace=wrap;html=1;strokeWidth=1;" vertex="1" parent="1">
                    <mxGeometry x="-100" y="-202" width="100" height="40" as="geometry"/>
                </mxCell>
                <mxCell id="162" value="" style="endArrow=none;html=1;" edge="1" source="165" target="159" parent="1">
                    <mxGeometry width="50" height="50" relative="1" as="geometry">
                        <mxPoint x="7.644201744274596" y="-293.2641164462517" as="sourcePoint"/>
                        <mxPoint x="-220.81074561700643" y="-372.2484390384967" as="targetPoint"/>
                    </mxGeometry>
                </mxCell>
                <mxCell id="163" value="" style="endArrow=none;html=1;" edge="1" source="165" target="160" parent="1">
                    <mxGeometry width="50" height="50" relative="1" as="geometry">
                        <mxPoint x="44.86762305417233" y="-297.9011130470582" as="sourcePoint"/>
                        <mxPoint x="-37.04899740618225" y="-325.23148186285096" as="targetPoint"/>
                    </mxGeometry>
                </mxCell>
                <mxCell id="164" value="" style="endArrow=none;html=1;" edge="1" source="165" target="161" parent="1">
                    <mxGeometry width="50" height="50" relative="1" as="geometry">
                        <mxPoint x="81.28549498054872" y="-289.76871553519834" as="sourcePoint"/>
                        <mxPoint x="66.70619944107489" y="-360.04344367239446" as="targetPoint"/>
                    </mxGeometry>
                </mxCell>
                <mxCell id="165" value="Cuenta Personal" style="ellipse;shape=doubleEllipse;margin=3;whiteSpace=wrap;html=1;align=center;strokeWidth=1;" vertex="1" parent="1">
                    <mxGeometry y="-270" width="120" height="62" as="geometry"/>
                </mxCell>
                <mxCell id="168" value="" style="endArrow=none;html=1;" edge="1" parent="1" source="SNr2iGY9kLtbWOyEGPe4-2" target="165">
                    <mxGeometry width="50" height="50" relative="1" as="geometry">
                        <mxPoint x="136.13801585820875" y="-277.94215563337957" as="sourcePoint"/>
                        <mxPoint x="204.94789123634519" y="-291.32537036227745" as="targetPoint"/>
                    </mxGeometry>
                </mxCell>
                <mxCell id="169" value="" style="endArrow=none;html=1;" edge="1" parent="1" source="SNr2iGY9kLtbWOyEGPe4-3" target="158">
                    <mxGeometry width="50" height="50" relative="1" as="geometry">
                        <mxPoint x="-124.59459459459458" y="-430" as="sourcePoint"/>
                        <mxPoint x="-182.97297297297314" y="-309.9999999999998" as="targetPoint"/>
                    </mxGeometry>
                </mxCell>
                <mxCell id="170" value="Banco&lt;br&gt;" style="ellipse;whiteSpace=wrap;html=1;strokeWidth=1;" vertex="1" parent="1">
                    <mxGeometry x="70" y="-710" width="100" height="40" as="geometry"/>
                </mxCell>
                <mxCell id="171" value="# de Cuenta" style="ellipse;whiteSpace=wrap;html=1;strokeWidth=1;" vertex="1" parent="1">
                    <mxGeometry x="-45" y="-690" width="100" height="40" as="geometry"/>
                </mxCell>
                <mxCell id="172" value="Tipo de cuenta" style="ellipse;whiteSpace=wrap;html=1;strokeWidth=1;" vertex="1" parent="1">
                    <mxGeometry x="110" y="-650" width="100" height="40" as="geometry"/>
                </mxCell>
                <mxCell id="173" value="Nombre" style="ellipse;whiteSpace=wrap;html=1;strokeWidth=1;" vertex="1" parent="1">
                    <mxGeometry x="100" y="-570" width="100" height="40" as="geometry"/>
                </mxCell>
                <mxCell id="174" value="" style="endArrow=none;html=1;" edge="1" source="178" target="170" parent="1">
                    <mxGeometry width="50" height="50" relative="1" as="geometry">
                        <mxPoint x="117.98980013557002" y="-378.3739389169257" as="sourcePoint"/>
                        <mxPoint x="-180.7749185379937" y="-407.23723684639344" as="targetPoint"/>
                    </mxGeometry>
                </mxCell>
                <mxCell id="175" value="" style="endArrow=none;html=1;" edge="1" source="178" target="171" parent="1">
                    <mxGeometry width="50" height="50" relative="1" as="geometry">
                        <mxPoint x="140.55045333348062" y="-382.62560576530404" as="sourcePoint"/>
                        <mxPoint x="160" y="-443" as="targetPoint"/>
                    </mxGeometry>
                </mxCell>
                <mxCell id="176" value="" style="endArrow=none;html=1;" edge="1" source="178" target="172" parent="1">
                    <mxGeometry width="50" height="50" relative="1" as="geometry">
                        <mxPoint x="163.99340662057102" y="-382.17269515813996" as="sourcePoint"/>
                        <mxPoint x="213.1726601750138" y="-498.1873275667058" as="targetPoint"/>
                    </mxGeometry>
                </mxCell>
                <mxCell id="177" value="" style="endArrow=none;html=1;" edge="1" source="178" target="173" parent="1">
                    <mxGeometry width="50" height="50" relative="1" as="geometry">
                        <mxPoint x="191.19741197782287" y="-374.81039457649456" as="sourcePoint"/>
                        <mxPoint x="319.0990822738545" y="-481.8312283818476" as="targetPoint"/>
                    </mxGeometry>
                </mxCell>
                <mxCell id="178" value="Cuenta Autorizada" style="ellipse;shape=doubleEllipse;margin=3;whiteSpace=wrap;html=1;align=center;strokeWidth=1;" vertex="1" parent="1">
                    <mxGeometry x="-40" y="-612" width="120" height="62" as="geometry"/>
                </mxCell>
                <mxCell id="179" value="" style="endArrow=none;html=1;" edge="1" parent="1" source="SNr2iGY9kLtbWOyEGPe4-3" target="178">
                    <mxGeometry width="50" height="50" relative="1" as="geometry">
                        <mxPoint x="-110" y="-490" as="sourcePoint"/>
                        <mxPoint x="-110" y="-620.0000000000002" as="targetPoint"/>
                    </mxGeometry>
                </mxCell>
                <mxCell id="181" value="Banco&lt;br&gt;" style="ellipse;whiteSpace=wrap;html=1;strokeWidth=1;" vertex="1" parent="1">
                    <mxGeometry x="120" y="-500" width="100" height="40" as="geometry"/>
                </mxCell>
                <mxCell id="182" value="# de Cuenta" style="ellipse;whiteSpace=wrap;html=1;strokeWidth=1;" vertex="1" parent="1">
                    <mxGeometry x="10" y="-500" width="100" height="40" as="geometry"/>
                </mxCell>
                <mxCell id="183" value="Tipo de cuenta" style="ellipse;whiteSpace=wrap;html=1;strokeWidth=1;" vertex="1" parent="1">
                    <mxGeometry x="220" y="-477.5" width="100" height="40" as="geometry"/>
                </mxCell>
                <mxCell id="184" value="Nombre" style="ellipse;whiteSpace=wrap;html=1;strokeWidth=1;" vertex="1" parent="1">
                    <mxGeometry x="210" y="-416.5" width="100" height="40" as="geometry"/>
                </mxCell>
                <mxCell id="185" value="" style="endArrow=none;html=1;" edge="1" source="189" target="181" parent="1">
                    <mxGeometry width="50" height="50" relative="1" as="geometry">
                        <mxPoint x="192.98980013557002" y="-380.3739389169257" as="sourcePoint"/>
                        <mxPoint x="-105.7749185379937" y="-409.23723684639344" as="targetPoint"/>
                    </mxGeometry>
                </mxCell>
                <mxCell id="186" value="" style="endArrow=none;html=1;" edge="1" source="189" target="182" parent="1">
                    <mxGeometry width="50" height="50" relative="1" as="geometry">
                        <mxPoint x="215.55045333348062" y="-384.62560576530404" as="sourcePoint"/>
                        <mxPoint x="235" y="-445" as="targetPoint"/>
                    </mxGeometry>
                </mxCell>
                <mxCell id="187" value="" style="endArrow=none;html=1;" edge="1" source="189" target="183" parent="1">
                    <mxGeometry width="50" height="50" relative="1" as="geometry">
                        <mxPoint x="238.99340662057102" y="-384.17269515813996" as="sourcePoint"/>
                        <mxPoint x="288.1726601750138" y="-500.1873275667058" as="targetPoint"/>
                    </mxGeometry>
                </mxCell>
                <mxCell id="188" value="" style="endArrow=none;html=1;" edge="1" source="189" target="184" parent="1">
                    <mxGeometry width="50" height="50" relative="1" as="geometry">
                        <mxPoint x="266.19741197782287" y="-376.81039457649456" as="sourcePoint"/>
                        <mxPoint x="394.0990822738545" y="-483.8312283818476" as="targetPoint"/>
                    </mxGeometry>
                </mxCell>
                <mxCell id="189" value="Cuenta Autorizada" style="ellipse;shape=doubleEllipse;margin=3;whiteSpace=wrap;html=1;align=center;strokeWidth=1;" vertex="1" parent="1">
                    <mxGeometry x="40" y="-427.5" width="120" height="62" as="geometry"/>
                </mxCell>
                <mxCell id="190" value="" style="endArrow=none;html=1;" edge="1" parent="1" source="SNr2iGY9kLtbWOyEGPe4-2" target="189">
                    <mxGeometry width="50" height="50" relative="1" as="geometry">
                        <mxPoint x="-10.532640773265484" y="-350" as="sourcePoint"/>
                        <mxPoint x="30.761975317651377" y="-286.3633008309532" as="targetPoint"/>
                    </mxGeometry>
                </mxCell>
                <mxCell id="193" value="" style="endArrow=none;html=1;rounded=0;" edge="1" parent="1" source="SNr2iGY9kLtbWOyEGPe4-14" target="142">
                    <mxGeometry relative="1" as="geometry">
                        <mxPoint x="-600" y="-420" as="sourcePoint"/>
                        <mxPoint x="-440" y="-420" as="targetPoint"/>
                    </mxGeometry>
                </mxCell>
                <mxCell id="195" value="1" style="edgeLabel;html=1;align=center;verticalAlign=middle;resizable=0;points=[];" vertex="1" connectable="0" parent="193">
                    <mxGeometry x="-0.825" y="1" relative="1" as="geometry">
                        <mxPoint as="offset"/>
                    </mxGeometry>
                </mxCell>
                <mxCell id="196" value="N" style="edgeLabel;html=1;align=center;verticalAlign=middle;resizable=0;points=[];" vertex="1" connectable="0" parent="193">
                    <mxGeometry x="0.8343" y="1" relative="1" as="geometry">
                        <mxPoint as="offset"/>
                    </mxGeometry>
                </mxCell>
                <mxCell id="197" value="Semana" style="ellipse;whiteSpace=wrap;html=1;strokeWidth=1;" vertex="1" parent="1">
                    <mxGeometry x="-850" y="-320" width="100" height="40" as="geometry"/>
                </mxCell>
                <mxCell id="198" value="" style="endArrow=none;html=1;" edge="1" parent="1" source="SNr2iGY9kLtbWOyEGPe4-14" target="197">
                    <mxGeometry width="50" height="50" relative="1" as="geometry">
                        <mxPoint x="-375.0548768308513" y="-150.0453233268397" as="sourcePoint"/>
                        <mxPoint x="-781" y="-310" as="targetPoint"/>
                    </mxGeometry>
                </mxCell>
                <mxCell id="201" value="1" style="ellipse;whiteSpace=wrap;html=1;aspect=fixed;strokeWidth=1;" vertex="1" parent="1">
                    <mxGeometry x="110" y="-350" width="40" height="40" as="geometry"/>
                </mxCell>
                <mxCell id="205" value="Rango" style="ellipse;whiteSpace=wrap;html=1;strokeWidth=1;" vertex="1" parent="1">
                    <mxGeometry x="-732" y="-320" width="100" height="40" as="geometry"/>
                </mxCell>
                <mxCell id="206" value="" style="endArrow=none;html=1;" edge="1" parent="1" source="SNr2iGY9kLtbWOyEGPe4-14" target="205">
                    <mxGeometry width="50" height="50" relative="1" as="geometry">
                        <mxPoint x="-744.3087722980681" y="-350" as="sourcePoint"/>
                        <mxPoint x="-762.1925373748377" y="-309.68726939742214" as="targetPoint"/>
                    </mxGeometry>
                </mxCell>
                <mxCell id="208" value="Envia" style="shape=rhombus;perimeter=rhombusPerimeter;whiteSpace=wrap;html=1;align=center;strokeWidth=1;" vertex="1" parent="1">
                    <mxGeometry x="-990" y="-417.5" width="120" height="60" as="geometry"/>
                </mxCell>
                <mxCell id="210" value="Acepta" style="shape=rhombus;perimeter=rhombusPerimeter;whiteSpace=wrap;html=1;align=center;strokeWidth=1;" vertex="1" parent="1">
                    <mxGeometry x="-1170" y="-550" width="120" height="60" as="geometry"/>
                </mxCell>
                <mxCell id="211" value="1" style="ellipse;whiteSpace=wrap;html=1;aspect=fixed;strokeWidth=1;" vertex="1" parent="1">
                    <mxGeometry x="-130" y="-660" width="40" height="40" as="geometry"/>
                </mxCell>
                <mxCell id="219" style="edgeStyle=none;html=1;exitX=0.5;exitY=1;exitDx=0;exitDy=0;entryX=0.5;entryY=0;entryDx=0;entryDy=0;" edge="1" parent="1" source="218" target="210">
                    <mxGeometry relative="1" as="geometry"/>
                </mxCell>
                <mxCell id="218" value="1" style="ellipse;whiteSpace=wrap;html=1;aspect=fixed;strokeWidth=1;" vertex="1" parent="1">
                    <mxGeometry x="-1130" y="-683" width="40" height="40" as="geometry"/>
                </mxCell>
                <mxCell id="220" value="" style="endArrow=none;html=1;" edge="1" parent="1" source="SNr2iGY9kLtbWOyEGPe4-14" target="208">
                    <mxGeometry width="50" height="50" relative="1" as="geometry">
                        <mxPoint x="-750.7058059040537" y="-350" as="sourcePoint"/>
                        <mxPoint x="-777.4039195511295" y="-309.35495288484935" as="targetPoint"/>
                    </mxGeometry>
                </mxCell>
                <mxCell id="223" value="1" style="edgeLabel;html=1;align=center;verticalAlign=middle;resizable=0;points=[];" vertex="1" connectable="0" parent="220">
                    <mxGeometry x="-0.7642" y="-1" relative="1" as="geometry">
                        <mxPoint as="offset"/>
                    </mxGeometry>
                </mxCell>
                <mxCell id="224" value="N" style="edgeLabel;html=1;align=center;verticalAlign=middle;resizable=0;points=[];" vertex="1" connectable="0" parent="220">
                    <mxGeometry x="0.6763" relative="1" as="geometry">
                        <mxPoint as="offset"/>
                    </mxGeometry>
                </mxCell>
                <mxCell id="221" value="" style="endArrow=none;html=1;" edge="1" parent="1" source="208" target="SNr2iGY9kLtbWOyEGPe4-10">
                    <mxGeometry width="50" height="50" relative="1" as="geometry">
                        <mxPoint x="-930" y="-387" as="sourcePoint"/>
                        <mxPoint x="-862.1428571428569" y="-377.57142857142867" as="targetPoint"/>
                    </mxGeometry>
                </mxCell>
                <mxCell id="225" value="1" style="edgeLabel;html=1;align=center;verticalAlign=middle;resizable=0;points=[];" vertex="1" connectable="0" parent="221">
                    <mxGeometry x="0.7735" y="-1" relative="1" as="geometry">
                        <mxPoint as="offset"/>
                    </mxGeometry>
                </mxCell>
                <mxCell id="226" value="1" style="edgeLabel;html=1;align=center;verticalAlign=middle;resizable=0;points=[];" vertex="1" connectable="0" parent="221">
                    <mxGeometry x="-0.5454" y="-1" relative="1" as="geometry">
                        <mxPoint as="offset"/>
                    </mxGeometry>
                </mxCell>
                <mxCell id="222" value="" style="endArrow=none;html=1;" edge="1" parent="1" source="210" target="SNr2iGY9kLtbWOyEGPe4-10">
                    <mxGeometry width="50" height="50" relative="1" as="geometry">
                        <mxPoint x="-979.3406593406592" y="-377.17032967032947" as="sourcePoint"/>
                        <mxPoint x="-1040" y="-376.83333333333326" as="targetPoint"/>
                    </mxGeometry>
                </mxCell>
                <mxCell id="227" value="1" style="edgeLabel;html=1;align=center;verticalAlign=middle;resizable=0;points=[];" vertex="1" connectable="0" parent="222">
                    <mxGeometry x="0.7705" y="1" relative="1" as="geometry">
                        <mxPoint as="offset"/>
                    </mxGeometry>
                </mxCell>
                <mxCell id="228" value="1" style="edgeLabel;html=1;align=center;verticalAlign=middle;resizable=0;points=[];" vertex="1" connectable="0" parent="222">
                    <mxGeometry x="-0.8077" relative="1" as="geometry">
                        <mxPoint as="offset"/>
                    </mxGeometry>
                </mxCell>
                <mxCell id="232" value="" style="verticalLabelPosition=bottom;verticalAlign=top;html=1;shape=mxgraph.basic.acute_triangle;dx=0.5;strokeWidth=1;rotation=-180;" vertex="1" parent="1">
                    <mxGeometry x="-1160" y="-280" width="100" height="70" as="geometry"/>
                </mxCell>
                <mxCell id="233" value="Es un" style="text;html=1;strokeColor=none;fillColor=none;align=center;verticalAlign=middle;whiteSpace=wrap;rounded=0;" vertex="1" parent="1">
                    <mxGeometry x="-1140" y="-270" width="60" height="30" as="geometry"/>
                </mxCell>
                <mxCell id="238" value="" style="endArrow=none;html=1;" edge="1" parent="1" source="SNr2iGY9kLtbWOyEGPe4-10" target="232">
                    <mxGeometry width="50" height="50" relative="1" as="geometry">
                        <mxPoint x="-750.727569903615" y="-350" as="sourcePoint"/>
                        <mxPoint x="-777.4518920608382" y="-309.35993796327807" as="targetPoint"/>
                    </mxGeometry>
                </mxCell>
                <mxCell id="239" value="Fletero" style="rounded=0;whiteSpace=wrap;html=1;" vertex="1" parent="1">
                    <mxGeometry x="-1290" y="-168" width="120" height="60" as="geometry"/>
                </mxCell>
                <mxCell id="240" value="Proveedor" style="rounded=0;whiteSpace=wrap;html=1;" vertex="1" parent="1">
                    <mxGeometry x="-1040" y="-162" width="120" height="60" as="geometry"/>
                </mxCell>
                <mxCell id="241" value="Cantidad de MP" style="ellipse;whiteSpace=wrap;html=1;strokeWidth=1;direction=south;" vertex="1" parent="1">
                    <mxGeometry x="-950" y="-80" width="100" height="40" as="geometry"/>
                </mxCell>
                <mxCell id="242" value="" style="endArrow=none;html=1;entryX=0.301;entryY=0.383;entryDx=0;entryDy=0;entryPerimeter=0;" edge="1" parent="1" source="240" target="232">
                    <mxGeometry width="50" height="50" relative="1" as="geometry">
                        <mxPoint x="-1100" y="-346.5" as="sourcePoint"/>
                        <mxPoint x="-1090" y="-250" as="targetPoint"/>
                    </mxGeometry>
                </mxCell>
                <mxCell id="243" value="" style="endArrow=none;html=1;entryX=0.69;entryY=0.345;entryDx=0;entryDy=0;entryPerimeter=0;" edge="1" parent="1" source="239" target="232">
                    <mxGeometry width="50" height="50" relative="1" as="geometry">
                        <mxPoint x="-1007.7087794432548" y="-152" as="sourcePoint"/>
                        <mxPoint x="-1087.4" y="-215.4000000000001" as="targetPoint"/>
                    </mxGeometry>
                </mxCell>
                <mxCell id="245" value="Observaciones" style="ellipse;whiteSpace=wrap;html=1;strokeWidth=1;direction=south;" vertex="1" parent="1">
                    <mxGeometry x="-1090" y="-80" width="100" height="40" as="geometry"/>
                </mxCell>
                <mxCell id="246" value="" style="endArrow=none;html=1;" edge="1" parent="1" source="240" target="245">
                    <mxGeometry width="50" height="50" relative="1" as="geometry">
                        <mxPoint x="-1001.5141684953724" y="-152" as="sourcePoint"/>
                        <mxPoint x="-1080.1" y="-226.80999999999995" as="targetPoint"/>
                    </mxGeometry>
                </mxCell>
                <mxCell id="247" value="" style="endArrow=none;html=1;" edge="1" parent="1" source="240" target="241">
                    <mxGeometry width="50" height="50" relative="1" as="geometry">
                        <mxPoint x="-970" y="-120" as="sourcePoint"/>
                        <mxPoint x="-1080.1" y="-226.80999999999995" as="targetPoint"/>
                    </mxGeometry>
                </mxCell>
                <mxCell id="249" value="" style="endArrow=none;html=1;" edge="1" parent="1" source="SNr2iGY9kLtbWOyEGPe4-14" target="255">
                    <mxGeometry width="50" height="50" relative="1" as="geometry">
                        <mxPoint x="-394.11937304839284" y="-150.00922526113936" as="sourcePoint"/>
                        <mxPoint x="-740.5" y="-470" as="targetPoint"/>
                    </mxGeometry>
                </mxCell>
                <mxCell id="253" value="ID-U" style="ellipse;whiteSpace=wrap;html=1;align=center;fontStyle=4;strokeWidth=1;" vertex="1" parent="1">
                    <mxGeometry x="-400" y="-280" width="100" height="40" as="geometry"/>
                </mxCell>
                <mxCell id="254" value="" style="endArrow=none;html=1;" edge="1" parent="1" source="138" target="253">
                    <mxGeometry width="50" height="50" relative="1" as="geometry">
                        <mxPoint x="-377.5412031125693" y="-156.5412031125693" as="sourcePoint"/>
                        <mxPoint x="-421.6170555314293" y="-201.40078559650487" as="targetPoint"/>
                    </mxGeometry>
                </mxCell>
                <mxCell id="255" value="&lt;span style=&quot;border-bottom: 1px dotted&quot;&gt;ID-Pro&lt;/span&gt;" style="ellipse;whiteSpace=wrap;html=1;align=center;strokeWidth=1;" vertex="1" parent="1">
                    <mxGeometry x="-791" y="-517.5" width="100" height="40" as="geometry"/>
                </mxCell>
            </root>
        </mxGraphModel>
    </diagram>
</mxfile>